<?xml version="1.0" encoding="utf-8"?>
<!-- Generator: Adobe Illustrator 23.0.6, SVG Export Plug-In . SVG Version: 6.00 Build 0)  -->
<svg version="1.1" id="Ebene_1" xmlns="http://www.w3.org/2000/svg" xmlns:xlink="http://www.w3.org/1999/xlink" x="0px" y="0px"
	 viewBox="0 0 87 16.1" style="enable-background:new 0 0 87 16.1;" xml:space="preserve">
<style type="text/css">
	.st0{fill:#0098A5;}
	.st1{fill-rule:evenodd;clip-rule:evenodd;}
	.st2{fill-rule:evenodd;clip-rule:evenodd;fill:#0098A5;}
</style>
<g>
	<path d="M66.1,9.6c0-1.6-1-3.1-3.2-3.1c-1,0-6,0-6,0v9.5h2.4V8.3c0,0,1.1,0,2.5,0c1.6,0,1.9,0.9,1.9,1.8c0,0.3,0,5.9,0,5.9l2.4,0
		C66.1,16.1,66.1,10.2,66.1,9.6L66.1,9.6z"/>
	<polygon points="87,8.3 87,6.5 79,6.5 79,8.3 81.8,8.3 81.8,16.1 84.2,16.1 84.2,8.3 87,8.3 	"/>
	<polygon class="st0" points="74.2,11.3 70.2,6.5 67,6.5 71.1,11.3 67,16.1 70.2,16.1 74.2,11.3 	"/>
	<polygon points="74.6,11.1 78.4,6.5 75.2,6.5 73,9.2 74.6,11.1 	"/>
	<polygon points="73,13.4 75.2,16.1 78.4,16.1 74.6,11.6 73,13.4 	"/>
	<g>
		<polygon class="st1" points="0,6.5 4,6.5 4,16.1 0,16.1 0,6.5 		"/>
		<polygon class="st1" points="0,0 4,0 4,3 0,3 0,0 		"/>
		<path class="st1" d="M9.2,3h6.5c2.7,0,5,2.2,5,5c0,2.7-2.2,5-5,5l-2.5,0V6.5h-4v9.6c0,0,4.5,0,5.4,0c5,0,10.3-1.8,10.3-7.9
			c0-6.1-5.4-8.1-9.8-8.1c-2.9,0-5.9,0-5.9,0V3L9.2,3z"/>
		<polygon class="st2" points="47.7,0 51.7,0 51.7,3 47.7,3 47.7,0 		"/>
		<polygon class="st2" points="47.7,6.5 51.7,6.5 51.7,9.6 47.7,9.6 47.7,6.5 		"/>
		<polygon class="st2" points="47.7,13 51.7,13 51.7,16.1 47.7,16.1 47.7,13 		"/>
		<path class="st1" d="M33.4,0c-2.8,0-5.3,2.1-5.3,4.8c0,2.6,2.6,4.8,5.3,4.8h4.5c1,0,1.7,0.8,1.7,1.7c0,1-0.8,1.7-1.7,1.7
			c0,0-9.9,0-9.7,0v3h10.3c2.8,0,5.3-2.1,5.3-4.8c0-2.6-2.6-4.8-5.3-4.8h-4.6c-1,0-1.7-0.8-1.7-1.7c0-1,0.8-1.7,1.7-1.7
			c0,0,8.8,0,8.6,0V0H33.4L33.4,0z"/>
	</g>
</g>
</svg>
